<?xml version="1.0" standalone="no"?>
<!DOCTYPE svg PUBLIC "-//W3C//DTD SVG 20010904//EN"
 "http://www.w3.org/TR/2001/REC-SVG-20010904/DTD/svg10.dtd">
<svg version="1.0" xmlns="http://www.w3.org/2000/svg"
 width="1280.000000pt" height="822.000000pt" viewBox="0 0 1280.000000 822.000000"
 preserveAspectRatio="xMidYMid meet">
<metadata>
Created by potrace 1.15, written by Peter Selinger 2001-2017
</metadata>
<g transform="translate(0.000000,822.000000) scale(0.100000,-0.100000)"
fill="#000000" stroke="none">
<path d="M8100 6495 l0 -455 -45 0 -45 0 0 -45 0 -45 -45 0 -45 0 0 65 c0 51
-3 65 -15 65 -8 0 -15 6 -15 13 0 24 -45 57 -76 57 -31 0 -74 -34 -74 -58 0
-9 -33 -12 -115 -12 -108 0 -115 -1 -115 -20 0 -11 7 -20 15 -20 13 0 15 -13
13 -72 -3 -71 -4 -73 -30 -76 l-28 -3 -2 -1167 -3 -1167 -22 -42 c-15 -26 -39
-52 -66 -68 -40 -23 -53 -25 -165 -25 l-122 0 0 133 c0 143 -8 169 -55 187
-19 7 -24 19 -29 67 -51 419 -81 560 -246 1148 -77 275 -140 505 -140 512 0
10 24 13 86 13 123 0 121 3 223 -302 45 -136 81 -256 79 -265 -2 -12 -12 -18
-32 -18 -28 0 -29 4 -91 178 -34 99 -70 186 -79 195 -20 20 -49 6 -54 -25 -3
-20 262 -781 277 -796 17 -17 56 -3 59 21 2 12 -24 99 -57 193 -34 94 -61 175
-61 180 0 5 9 9 20 9 29 0 60 36 60 69 0 34 -162 513 -186 549 -24 37 -73 52
-173 52 l-90 0 -11 43 c-57 216 -131 365 -243 484 l-30 32 31 26 c41 34 55 89
50 191 -7 131 -50 174 -175 174 l-73 0 0 -125 c0 -69 -2 -125 -4 -125 -2 0
-46 20 -98 45 -51 24 -129 54 -173 67 -80 22 -84 22 -916 26 l-836 3 -31 -26
c-17 -14 -33 -34 -36 -43 -3 -9 -60 -548 -126 -1197 -66 -649 -122 -1186 -125
-1192 -3 -10 -120 -13 -537 -13 l-533 0 -50 -24 c-27 -12 -64 -35 -82 -50 -36
-30 -93 -137 -93 -173 0 -22 -4 -23 -63 -23 -36 0 -68 -5 -75 -12 -9 -9 -12
-88 -12 -294 0 -320 -8 -294 91 -294 l59 0 0 -498 c0 -465 1 -500 19 -532 21
-40 89 -80 135 -80 23 0 34 -6 41 -22 6 -13 17 -22 26 -20 23 3 32 -48 12 -70
-12 -13 -12 -21 -3 -38 7 -12 18 -19 26 -16 8 3 20 -6 29 -23 13 -25 13 -31 0
-41 -21 -17 -1 -50 30 -50 28 0 46 -28 38 -58 -7 -29 14 -54 39 -46 27 8 56
-21 51 -49 -6 -31 21 -55 42 -37 21 17 65 -11 58 -38 -7 -29 22 -48 51 -32 30
15 63 0 68 -32 4 -27 45 -38 54 -15 8 22 54 8 64 -19 11 -28 60 -35 60 -9 0
24 61 20 67 -5 8 -29 63 -29 63 0 0 16 7 20 30 20 18 0 33 -6 36 -15 10 -24
53 -18 63 9 11 28 46 39 62 19 18 -21 53 -12 57 15 4 29 49 53 62 32 14 -22
63 4 55 29 -8 27 30 54 55 38 25 -15 53 8 46 38 -7 28 25 59 52 51 27 -9 50
19 35 44 -16 24 10 60 43 60 29 0 42 25 26 51 -16 26 3 68 28 62 12 -3 23 3
30 18 11 19 10 24 -5 35 -22 16 -12 79 11 70 9 -3 19 4 26 19 l11 25 1054 0
c1046 0 1053 0 1053 -20 0 -11 5 -21 10 -21 6 -1 15 -2 22 -3 20 -2 29 -55 11
-65 -25 -13 -9 -65 18 -58 27 7 48 -35 30 -57 -20 -24 -4 -56 27 -56 35 0 59
-34 41 -56 -17 -21 24 -65 43 -46 18 18 63 -25 46 -45 -17 -21 25 -62 46 -44
23 19 65 -12 59 -43 -6 -29 29 -45 53 -25 17 14 69 -4 59 -21 -9 -15 14 -40
35 -40 10 0 20 6 23 14 9 23 61 5 65 -22 4 -26 49 -31 58 -7 9 23 61 19 67 -5
7 -28 57 -28 64 0 6 24 58 28 67 5 9 -24 54 -19 58 7 4 28 54 44 67 21 13 -25
65 -9 58 18 -7 25 37 46 59 28 7 -6 23 -8 34 -4 17 5 21 13 17 31 -6 31 36 62
59 43 21 -18 63 23 46 44 -16 19 19 51 46 43 27 -9 59 28 43 48 -18 22 7 56
41 56 30 0 47 32 29 54 -18 22 3 66 28 59 27 -7 43 45 18 58 -18 10 -9 63 11
65 7 1 17 2 22 3 16 2 12 51 -5 57 -23 9 -19 61 5 67 13 3 20 14 20 30 0 16
-7 26 -20 30 -25 6 -29 67 -5 67 10 0 15 10 15 29 0 23 -5 30 -22 33 -26 4
-44 54 -22 62 17 6 18 38 3 53 -6 6 -17 9 -24 6 -8 -2 -19 5 -25 17 -12 23 -8
38 26 100 74 130 115 232 147 360 20 83 21 106 24 1283 l4 1197 40 0 c32 0 42
-4 46 -20 4 -16 14 -20 49 -20 l44 0 0 -45 c0 -33 4 -45 15 -45 12 0 15 -13
15 -55 l0 -55 104 0 c58 0 320 14 583 30 263 17 552 35 643 40 91 6 340 22
554 35 213 14 395 25 402 25 10 0 14 14 14 50 l0 50 -1045 0 -1045 0 0 850 0
850 -120 0 -120 0 0 -455z m-2133 -398 c135 -47 243 -141 301 -261 24 -50 412
-1404 437 -1525 l7 -34 -63 7 c-282 31 -351 58 -430 172 -19 28 -34 41 -44 38
-12 -5 -15 7 -15 70 l0 77 108 52 c99 48 107 54 110 83 3 35 -18 64 -49 64
-22 0 -645 -295 -671 -318 -31 -26 -20 -78 18 -93 19 -7 45 1 130 41 59 28
108 50 110 50 4 0 54 -77 54 -84 0 -2 -9 -6 -21 -9 -14 -4 -19 -11 -16 -24 45
-161 69 -222 100 -254 19 -19 83 -59 143 -89 146 -73 182 -111 270 -286 79
-156 114 -194 209 -228 l60 -21 16 -78 17 -79 -52 -32 c-175 -111 -245 -147
-264 -137 -45 24 -45 36 -6 96 30 44 36 60 27 73 -20 33 -50 26 -85 -22 -18
-25 -36 -45 -41 -46 -4 0 -24 15 -44 34 l-37 34 27 35 c32 42 35 73 7 82 -27
9 -34 3 -133 -102 -88 -93 -97 -109 -75 -131 20 -20 40 -14 80 25 l38 37 42
-39 c24 -22 44 -41 47 -42 2 -1 -22 -37 -53 -80 -31 -43 -56 -85 -56 -94 0
-34 -317 -148 -421 -152 l-60 -2 1 166 c1 264 -23 359 -116 459 -52 55 -143
106 -214 118 -44 7 -45 8 -48 50 -3 39 -1 42 22 42 61 0 106 46 106 111 0 22
-10 41 -34 65 l-34 34 -366 0 -366 0 0 88 0 87 53 25 c31 15 61 39 75 59 21
33 22 43 22 245 0 237 -6 261 -69 303 -31 21 -46 23 -160 23 -86 0 -131 -4
-139 -12 -9 -9 -12 -91 -12 -309 0 -251 2 -298 15 -309 11 -9 15 -35 15 -105
l0 -92 -30 -7 c-75 -15 -109 -118 -55 -172 13 -13 38 -27 55 -30 27 -6 30 -10
30 -45 l0 -39 -113 0 -112 0 -83 73 c-77 67 -82 75 -82 112 -1 97 221 2192
235 2223 30 66 -2 63 846 58 l767 -5 69 -24z m1628 -652 l0 -260 -27 -3 -28
-3 0 266 0 266 28 -3 27 -3 0 -260z m115 -1 l0 -265 -27 3 -28 3 -3 250 c-1
137 0 255 3 262 2 7 16 13 30 13 l25 0 0 -266z m-115 -1009 l0 -690 -25 0 -25
0 -3 680 c-1 374 0 686 3 693 3 7 15 12 27 10 l23 -3 0 -690z m115 -1 l0 -695
-27 3 -28 3 -3 680 c-1 374 0 686 3 693 2 6 16 12 30 12 l25 0 0 -696z m-2590
-734 l0 -40 -240 0 -240 0 0 40 0 40 240 0 240 0 0 -40z m1239 -543 c8 -11 3
-17 -24 -30 -40 -19 -42 -16 -17 18 20 28 26 30 41 12z"/>
</g>
</svg>
