<?xml version="1.0" encoding="UTF-8" standalone="no"?>
<svg
   xmlns:dc="http://purl.org/dc/elements/1.1/"
   xmlns:cc="http://creativecommons.org/ns#"
   xmlns:rdf="http://www.w3.org/1999/02/22-rdf-syntax-ns#"
   xmlns:svg="http://www.w3.org/2000/svg"
   xmlns="http://www.w3.org/2000/svg"
   xmlns:sodipodi="http://sodipodi.sourceforge.net/DTD/sodipodi-0.dtd"
   xmlns:inkscape="http://www.inkscape.org/namespaces/inkscape"
   data-name="Layer 1"
   width="793"
   height="662"
   version="1.1"
   id="svg1910"
   sodipodi:docname="our_vision.svg"
   inkscape:version="1.0.1 (3bc2e813f5, 2020-09-07)">
  <metadata
     id="metadata1916">
    <rdf:RDF>
      <cc:Work
         rdf:about="">
        <dc:format>image/svg+xml</dc:format>
        <dc:type
           rdf:resource="http://purl.org/dc/dcmitype/StillImage" />
        <dc:title></dc:title>
      </cc:Work>
    </rdf:RDF>
  </metadata>
  <defs
     id="defs1914" />
  <sodipodi:namedview
     pagecolor="#ffffff"
     bordercolor="#666666"
     borderopacity="1"
     objecttolerance="10"
     gridtolerance="10"
     guidetolerance="10"
     inkscape:pageopacity="0"
     inkscape:pageshadow="2"
     inkscape:window-width="1366"
     inkscape:window-height="705"
     id="namedview1912"
     showgrid="false"
     inkscape:showpageshadow="false"
     inkscape:zoom="0.39465868"
     inkscape:cx="612.96502"
     inkscape:cy="398.10019"
     inkscape:window-x="-8"
     inkscape:window-y="-8"
     inkscape:window-maximized="1"
     inkscape:current-layer="svg1910" />
  <g
     id="g2505"
     transform="scale(0.81336088,0.85534356)">
    <circle
       cx="520.96698"
       cy="99.958"
       r="64"
       fill="#ff6584"
       id="circle1858" />
    <path
       d="m 328.263,407.972 c 0,123.61 -73.484,166.77 -164.131,166.77 C 73.485,574.742 0,531.582 0,407.972 0,284.362 164.132,127.11 164.132,127.11 c 0,0 164.131,157.252 164.131,280.862 z"
       fill="#f2f2f2"
       id="path1860" />
    <path
       fill="#3f3d56"
       d="m 158.153,555.833 1.68,-103.45 69.957,-127.983 -69.693,111.754 0.755,-46.515 48.215,-92.595 -48.015,80.285 1.36,-83.66 51.628,-73.717 -51.415,60.562 0.849,-153.404 -5.336,203.078 0.438,-8.377 -52.491,-80.347 51.65,96.429 -4.891,93.434 -0.146,-2.48 -60.513,-84.553 60.33,93.314 -0.612,11.685 -0.109,0.176 0.05,0.959 -12.409,237.05 h 16.579 l 1.989,-122.441 60.182,-93.085 z"
       id="path1862" />
    <path
       d="m 814.647,343.122 c 0,151.011 -89.774,203.739 -200.515,203.739 -110.741,0 -200.516,-52.728 -200.516,-203.74 C 413.616,192.109 614.132,0 614.132,0 c 0,0 200.515,192.11 200.515,343.122 z"
       fill="#f2f2f2"
       id="path1864" />
    <path
       fill="#3f3d56"
       d="m 606.827,523.761 2.053,-126.383 85.465,-156.354 -85.143,136.528 0.924,-56.827 58.902,-113.12 -58.658,98.082 1.66,-102.206 63.074,-90.058 -62.813,73.986 L 613.329,0 l -6.52,248.096 0.536,-10.235 -64.127,-98.157 63.099,117.804 -5.976,114.146 -0.177,-3.029 -73.928,-103.296 73.704,113.999 -0.748,14.275 -0.133,0.215 0.061,1.172 -15.16,289.599 h 20.254 l 2.431,-149.584 73.522,-113.72 z"
       id="path1866" />
    <ellipse
       cx="399.96701"
       cy="684.95801"
       rx="308"
       ry="11"
       fill="#3f3d56"
       id="ellipse1868" />
    <ellipse
       cx="832.96698"
       cy="760.45801"
       rx="142"
       ry="13.5"
       fill="#3f3d56"
       id="ellipse1870" />
    <path
       fill="#2f2e41"
       d="m 381.967,346.958 h 36 v 338 h -36 z"
       id="path1872" />
    <path
       fill="#3f3d56"
       d="m 564.967,423.958 h -221 v -62 h 221 l 64,31 z"
       id="path1874" />
    <path
       opacity="0.1"
       d="m 564.967,418.958 h -221 v 5 h 221 l 64,-31 -5.161,-2.5 z"
       id="path1876" />
    <path
       fill="#3f3d56"
       d="m 235.967,505.958 h 221 v -62 h -221 l -64,31 z"
       id="path1878" />
    <path
       opacity="0.1"
       d="m 177.128,472.458 -5.161,2.5 64,31 h 221 v -5 h -221 z"
       id="path1880" />
    <path
       fill="#6c63ff"
       d="m 467.967,373.958 h 38 v 38 h -38 z"
       id="path1882" />
    <circle
       cx="314.96701"
       cy="474.95801"
       r="19"
       fill="#6c63ff"
       id="circle1884" />
    <circle
       cx="399.96701"
       cy="390.95801"
       r="11"
       fill="#2f2e41"
       id="circle1886" />
    <circle
       cx="399.96701"
       cy="472.95801"
       r="11"
       fill="#2f2e41"
       id="circle1888" />
    <path
       d="m 325.967,647.294 c 0,22.469 -13.356,30.314 -29.834,30.314 q -0.572,0 -1.143,-0.013 a 48.69,48.69 0 0 1 -2.267,-0.104 c -14.87,-1.052 -26.424,-9.3 -26.424,-30.197 0,-21.625 27.635,-48.912 29.71,-50.932 l 0.004,-0.003 0.12,-0.117 c 0,0 29.834,28.583 29.834,51.052 z"
       fill="#6c63ff"
       id="path1890" />
    <path
       d="m 295.046,674.17 10.912,-15.246 -10.94,16.92 -0.028,1.751 a 48.69,48.69 0 0 1 -2.267,-0.104 l 1.176,-22.479 -0.009,-0.175 0.02,-0.032 0.111,-2.123 -10.966,-16.963 11,15.37 0.026,0.451 0.889,-16.984 -9.389,-17.528 9.503,14.547 0.926,-35.213 0.003,-0.12 v 0.116 l -0.154,27.768 9.346,-11.008 -9.385,13.4 -0.247,15.207 8.727,-14.595 -8.763,16.832 -0.138,8.454 12.67,-20.312 -12.717,23.262 z"
       fill="#3f3d56"
       id="path1892" />
    <path
       d="m 787.007,735.872 c 0,0 -14.159,11.923 -21.611,11.178 -7.452,-0.745 -21.611,-0.745 -15.65,7.452 5.961,8.197 30.554,12.669 40.987,13.414 10.433,0.745 33.535,1.49 32.044,-2.98 -1.491,-4.47 -2.98,-25.338 -8.942,-26.828 -5.962,-1.49 -26.828,-2.236 -26.828,-2.236 z m 81.265,-11.707 c 0,0 -10.433,15.29 -17.811,16.575 -7.378,1.285 -21.017,5.09 -13.071,11.384 7.946,6.294 32.834,3.991 43.084,1.905 10.25,-2.086 32.7,-7.577 30.064,-11.483 -2.636,-3.906 -9.681,-23.604 -15.824,-23.437 -6.143,0.167 -26.442,5.056 -26.442,5.056 z"
       fill="#575a89"
       id="path1894" />
    <path
       d="m 778.713,505.496 c 0,0 -9.591,65.684 -7.355,77.607 2.236,11.923 3.726,30.554 3.726,30.554 0,0 -1.49,15.65 0,23.102 1.49,7.452 10.433,78.247 10.433,79.737 0,1.49 -1.49,5.962 0,9.688 1.49,3.726 4.47,0.745 0,6.707 -4.47,5.962 -1.49,7.452 -0.746,7.452 0.744,0 29.809,2.981 31.3,0 1.491,-2.981 -0.746,-3.726 0,-7.452 0.746,-3.726 1.49,-4.471 2.98,-5.216 1.49,-0.745 4.472,0.745 2.236,-2.981 -2.236,-3.726 -7.452,-8.198 -5.962,-10.433 1.49,-2.235 -0.745,-18.63 -0.745,-18.63 0,0 -1.49,-36.516 -2.236,-58.872 -0.746,-22.356 6.707,-45.458 6.707,-45.458 a 85.264,85.264 0 0 0 19.376,49.929 c 19.375,23.101 29.063,66.324 29.063,66.324 0,0 4.471,6.707 2.236,12.668 -2.235,5.961 -8.943,2.236 -2.236,5.962 6.707,3.726 29.809,-1.49 32.044,-3.726 2.235,-2.236 -2.98,-5.216 -1.49,-11.178 1.49,-5.962 7.452,-4.471 2.236,-7.452 -5.216,-2.981 -6.707,-2.236 -6.707,-5.217 0,-2.981 -13.414,-67.814 -34.28,-86.445 l -1.49,-67.814 c 0,0 18.63,-47.694 -0.746,-52.165 -19.376,-4.471 -78.344,13.309 -78.344,13.309 z"
       fill="#2f2e41"
       id="path1896" />
    <path
       d="m 792.224,328.985 c 0,0 12.668,31.3 9.687,35.77 -2.981,4.47 36.516,-14.904 36.516,-14.904 0,0 -12.669,-31.299 -12.669,-35.025 0,-3.726 -33.534,14.16 -33.534,14.16 z"
       fill="#a0616a"
       id="path1898" />
    <circle
       cx="801.539"
       cy="309.237"
       r="27.573"
       fill="#a0616a"
       id="circle1900" />
    <path
       d="m 838.427,337.183 c 0,0 -19.376,-2.236 -29.064,9.687 -9.688,11.923 -11.178,14.905 -11.178,14.905 0,0 -23.101,37.26 -18.63,55.89 a 53.906,53.906 0 0 1 2.98,5.217 c 1.491,2.981 1.491,44.713 0,51.42 -1.491,6.707 -2.98,8.943 -1.49,18.63 1.49,9.687 -11.923,25.338 3.726,28.318 15.649,2.98 27.573,0.746 32.79,-5.961 5.217,-6.707 0.745,-11.179 17.14,-11.179 16.395,0 26.827,-11.178 26.827,-11.178 0,0 -8.197,-8.942 -5.216,-10.433 2.981,-1.491 0,-5.216 -1.49,-8.942 -1.49,-3.726 -1.49,-6.707 0.745,-6.707 2.235,0 0.745,-1.49 -0.746,-5.217 -1.491,-3.727 26.083,-67.814 9.688,-86.444 -16.395,-18.63 -24.592,-29.064 -24.592,-29.064 0,0 2.981,-11.178 -1.49,-8.942 z"
       fill="#6c63ff"
       id="path1902" />
    <path
       d="m 795.95,407.978 v 32.79 l -23.847,78.992 c 0,0 -15.65,40.987 0,40.987 15.65,0 14.81,-39.12 14.81,-39.12 l 33.629,-59.249 c 0,0 13.413,-46.948 11.923,-50.674 -1.49,-3.726 -36.515,-3.726 -36.515,-3.726 z"
       fill="#a0616a"
       id="path1904" />
    <path
       d="m 808.618,359.54 c 0,0 -22.356,8.942 -16.394,32.788 5.962,23.846 0,23.102 0,23.102 0,0 30.553,-2.98 40.241,3.726 l 2.236,-8.942 c 0,0 8.942,-51.42 -26.083,-50.675 z"
       fill="#6c63ff"
       id="path1906" />
    <path
       d="m 792.124,288.538 a 11.001,11.001 0 0 1 -10.334,-1.609 c -2.81,-2.314 -4,-6.584 -2.348,-9.827 1.426,-2.8 4.478,-4.337 7.405,-5.483 a 68.83,68.83 0 0 1 20.17,-4.554 c 3.297,-0.235 6.76,-0.197 9.702,1.309 1.455,0.745 2.72,1.82 4.161,2.592 2.65,1.42 5.736,1.735 8.6,2.648 a 21.526,21.526 0 0 1 13.155,12.093 25.939,25.939 0 0 1 1.62,6.002 33.435,33.435 0 0 1 -1.738,16.738 c -3.177,8.458 -9.84,15.852 -10.215,24.879 -4.078,-2.959 -5.59,-8.299 -8.858,-12.133 a 16.503,16.503 0 0 0 -9.42,-5.463 5.246,5.246 0 0 1 -2.807,-1.024 4.52,4.52 0 0 1 -1.025,-2.392 l -2.79,-13.174 c -0.568,-2.682 -1.286,-5.605 -3.49,-7.234 a 10.558,10.558 0 0 0 -4.547,-1.602 71.34,71.34 0 0 0 -11.65,-1.062"
       fill="#2f2e41"
       id="path1908" />
  </g>
</svg>
